<svg width="18" height="18" viewBox="0 0 18 18" fill="none" xmlns="http://www.w3.org/2000/svg">
<g clip-path="url(#clip0_4372_51614)">
<path d="M9.46436 4.99997C9.46436 4.66844 9.59615 4.3506 9.83057 4.11618C10.065 3.88176 10.3828 3.74997 10.7144 3.74997H12.3215V1.96425H10.7144C9.90923 1.96425 9.13732 2.28431 8.56801 2.85362C7.9987 3.42293 7.67864 4.19484 7.67864 4.99997V7.14282C7.67864 7.43869 7.43879 7.67854 7.14293 7.67854H5.53578V9.46425H7.14293C7.43879 9.46425 7.67864 9.7041 7.67864 9.99997V15.1785H9.46436V9.99997C9.46436 9.7041 9.7042 9.46425 10.0001 9.46425H11.7251L12.1715 7.67854H10.0001C9.7042 7.67854 9.46436 7.43869 9.46436 7.14282V4.99997ZM10.5358 6.60711H12.8572C13.0221 6.60711 13.1777 6.68302 13.2792 6.81288C13.3807 6.94287 13.4168 7.11257 13.3769 7.27257L12.6626 10.1297C12.603 10.3682 12.3887 10.5357 12.1429 10.5357H10.5358V15.7143C10.5358 16.0101 10.2959 16.25 10.0001 16.25H7.14293C6.84706 16.25 6.60721 16.0101 6.60721 15.7143V10.5357H5.00007C4.7042 10.5357 4.46436 10.2958 4.46436 9.99997V7.14282C4.46436 6.84696 4.7042 6.60711 5.00007 6.60711H6.60721V4.99997C6.60721 3.91068 7.04024 2.86633 7.81048 2.09609C8.58072 1.32585 9.62507 0.892822 10.7144 0.892822H12.8572C13.1531 0.892822 13.3929 1.13267 13.3929 1.42854V4.28568C13.3929 4.58155 13.1531 4.82139 12.8572 4.82139H10.7144C10.667 4.82139 10.6216 4.84022 10.5881 4.87371C10.5546 4.9072 10.5358 4.95261 10.5358 4.99997V6.60711Z" fill="#262626"/>
</g>
<defs>
<clipPath id="clip0_4372_51614">
<rect width="17.1429" height="17.1429" fill="white"/>
</clipPath>
</defs>
</svg>
