<svg width="18" height="18" viewBox="0 0 18 18" fill="none" xmlns="http://www.w3.org/2000/svg">
<g clip-path="url(#clip0_4372_51607)">
<path d="M15.1788 4.99997C15.1788 3.32339 13.8196 1.96425 12.1431 1.96425H5.00021C3.32363 1.96425 1.96449 3.32339 1.96449 4.99997V12.1428C1.96449 13.8194 3.32363 15.1785 5.00021 15.1785H12.1431C13.8196 15.1785 15.1788 13.8194 15.1788 12.1428V4.99997ZM7.03983 5.5287C7.67327 5.20002 8.39446 5.07944 9.10038 5.18412C9.8204 5.29089 10.4872 5.62647 11.0019 6.14115C11.5166 6.65584 11.8521 7.32266 11.9589 8.04265C12.0636 8.74857 11.943 9.46976 11.6143 10.1032C11.2856 10.7366 10.7653 11.25 10.1279 11.5708C9.49047 11.8916 8.76833 12.0036 8.06383 11.8903C7.35925 11.7769 6.7081 11.4442 6.20347 10.9396C5.6989 10.4349 5.36609 9.78374 5.25272 9.07921C5.13944 8.37474 5.25141 7.65251 5.5722 7.01517C5.89303 6.37775 6.40642 5.85738 7.03983 5.5287ZM8.94343 6.24438C8.46046 6.17277 7.96708 6.2553 7.53369 6.48015C7.10028 6.70504 6.74875 7.06103 6.52923 7.49718C6.30983 7.93318 6.23341 8.4271 6.3109 8.90901C6.38846 9.39104 6.61579 9.83677 6.96101 10.182C7.30627 10.5273 7.75195 10.7546 8.23403 10.8321C8.71608 10.9097 9.21043 10.8333 9.64655 10.6138C10.0825 10.3943 10.4387 10.0433 10.6636 9.61004C10.8884 9.17673 10.9709 8.6832 10.8993 8.2003C10.8263 7.70774 10.5964 7.25153 10.2444 6.89938C9.89222 6.54725 9.43601 6.31748 8.94343 6.24438ZM12.5072 4.10711C12.8031 4.10711 13.0429 4.34696 13.0429 4.64282C13.0429 4.93869 12.8031 5.17854 12.5072 5.17854H12.5002C12.2043 5.17854 11.9645 4.93869 11.9645 4.64282C11.9645 4.34696 12.2043 4.10711 12.5002 4.10711H12.5072ZM16.2502 12.1428C16.2502 14.4111 14.4114 16.25 12.1431 16.25H5.00021C2.7319 16.25 0.893066 14.4111 0.893066 12.1428V4.99997C0.893066 2.73165 2.7319 0.892822 5.00021 0.892822H12.1431C14.4114 0.892822 16.2502 2.73165 16.2502 4.99997V12.1428Z" fill="#262626"/>
</g>
<defs>
<clipPath id="clip0_4372_51607">
<rect width="17.1429" height="17.1429" fill="white"/>
</clipPath>
</defs>
</svg>
