<svg width="16" height="16" viewBox="0 0 16 16" fill="none" xmlns="http://www.w3.org/2000/svg">
<path d="M12.8333 6.66659C12.8333 5.38471 12.3244 4.15504 11.4179 3.24862C10.5681 2.39882 9.4342 1.89835 8.23954 1.83911L7.99996 1.83325C6.71808 1.83325 5.48842 2.34219 4.58199 3.24862C3.67556 4.15504 3.16663 5.38471 3.16663 6.66659C3.16663 8.46907 4.38519 10.3475 5.70699 11.8346C6.35614 12.5648 7.00709 13.1749 7.49605 13.6028C7.69493 13.7768 7.86696 13.9195 7.99996 14.0279C8.13296 13.9195 8.30499 13.7768 8.50387 13.6028C8.99283 13.1749 9.64378 12.5648 10.2929 11.8346C11.6147 10.3475 12.8333 8.46907 12.8333 6.66659ZM9.49996 6.66659C9.49996 5.83816 8.82839 5.16659 7.99996 5.16659C7.17153 5.16659 6.49996 5.83816 6.49996 6.66659C6.49996 7.49501 7.17153 8.16659 7.99996 8.16659C8.82839 8.16659 9.49996 7.49501 9.49996 6.66659ZM10.5 6.66659C10.5 8.0473 9.38067 9.16659 7.99996 9.16659C6.61925 9.16659 5.49996 8.0473 5.49996 6.66659C5.49996 5.28587 6.61925 4.16659 7.99996 4.16659C9.38067 4.16659 10.5 5.28587 10.5 6.66659ZM13.8333 6.66659C13.8333 8.86406 12.3852 10.9857 11.0403 12.4986C10.3562 13.2683 9.67373 13.9083 9.16272 14.3554C8.90686 14.5793 8.69289 14.7558 8.54228 14.8769C8.46701 14.9374 8.40707 14.9842 8.36584 15.0162C8.34538 15.0321 8.3294 15.0442 8.31832 15.0527C8.31276 15.0569 8.30837 15.0601 8.3053 15.0624C8.30376 15.0636 8.30229 15.0643 8.30139 15.065L8.30074 15.0663H8.30009C8.14457 15.183 7.93779 15.198 7.76949 15.1106L7.69983 15.0663H7.69918L7.69853 15.065C7.69763 15.0643 7.69616 15.0636 7.69462 15.0624C7.69155 15.0601 7.68715 15.0569 7.6816 15.0527C7.67052 15.0442 7.65454 15.0321 7.63407 15.0162C7.59285 14.9842 7.53291 14.9374 7.45764 14.8769C7.30703 14.7558 7.09306 14.5793 6.8372 14.3554C6.32619 13.9083 5.64371 13.2683 4.95959 12.4986C3.61475 10.9857 2.16663 8.86406 2.16663 6.66659C2.16663 5.11949 2.781 3.63555 3.87496 2.54159C4.96892 1.44762 6.45286 0.833252 7.99996 0.833252C9.54706 0.833252 11.031 1.44762 12.125 2.54159C13.2189 3.63555 13.8333 5.11949 13.8333 6.66659Z" fill="white"/>
</svg>
