<svg width="24" height="24" viewBox="0 0 24 24" fill="none" xmlns="http://www.w3.org/2000/svg">
<path d="M8.25 18.0001C8.25 16.7575 7.24264 15.7501 6 15.7501C4.75736 15.7501 3.75 16.7575 3.75 18.0001C3.75 19.2427 4.75736 20.2501 6 20.2501C7.24264 20.2501 8.25 19.2427 8.25 18.0001ZM20.25 16.0001C20.25 14.7575 19.2426 13.7501 18 13.7501C16.7574 13.7501 15.75 14.7575 15.75 16.0001C15.75 17.2427 16.7574 18.2501 18 18.2501C19.2426 18.2501 20.25 17.2427 20.25 16.0001ZM9.75 5.63584V8.11435L20.25 6.36435V3.88584L9.75 5.63584ZM21.75 16.0001C21.75 18.0712 20.0711 19.7501 18 19.7501C15.9289 19.7501 14.25 18.0712 14.25 16.0001C14.25 13.929 15.9289 12.2501 18 12.2501C18.8441 12.2501 19.6233 12.5285 20.25 12.9991V7.88584L9.75 9.63584V18.0001C9.75 20.0712 8.07107 21.7501 6 21.7501C3.92893 21.7501 2.25 20.0712 2.25 18.0001C2.25 15.929 3.92893 14.2501 6 14.2501C6.84405 14.2501 7.62331 14.5285 8.25 14.9991V5.00009C8.25 4.63346 8.51531 4.32013 8.87695 4.25986L20.877 2.25986C21.0942 2.22374 21.3163 2.28554 21.4844 2.42783C21.6526 2.57033 21.75 2.77963 21.75 3.00009V16.0001Z" fill="#262626"/>
</svg>
