<svg width="24" height="24" viewBox="0 0 24 24" fill="none" xmlns="http://www.w3.org/2000/svg">
<path d="M15.25 21V19C15.25 18.138 14.9073 17.3116 14.2979 16.7021C13.7264 16.1307 12.9644 15.7937 12.1611 15.7539L12 15.75H6C5.13805 15.75 4.31164 16.0927 3.70215 16.7021C3.09266 17.3116 2.75 18.138 2.75 19V21C2.75 21.4142 2.41421 21.75 2 21.75C1.58579 21.75 1.25 21.4142 1.25 21V19C1.25 17.7402 1.7508 16.5324 2.6416 15.6416C3.5324 14.7508 4.74022 14.25 6 14.25H12C13.2598 14.25 14.4676 14.7508 15.3584 15.6416C16.2492 16.5324 16.75 17.7402 16.75 19V21C16.75 21.4142 16.4142 21.75 16 21.75C15.5858 21.75 15.25 21.4142 15.25 21ZM21.25 21V19C21.2494 18.2801 21.0094 17.5807 20.5684 17.0117C20.1272 16.4427 19.5096 16.0365 18.8125 15.8564C18.4115 15.7529 18.1699 15.3434 18.2734 14.9424C18.377 14.5414 18.7865 14.2998 19.1875 14.4033C20.2065 14.6664 21.1091 15.261 21.7539 16.0928C22.3986 16.9245 22.7491 17.9467 22.75 18.999V21C22.7499 21.4142 22.4142 21.75 22 21.75C21.5858 21.75 21.2501 21.4142 21.25 21ZM12.25 7C12.25 5.20507 10.7949 3.75 9 3.75C7.20507 3.75 5.75 5.20507 5.75 7C5.75 8.79493 7.20507 10.25 9 10.25C10.7949 10.25 12.25 8.79493 12.25 7ZM18.2578 7.00488C18.2578 6.28325 18.0177 5.58178 17.5752 5.01172C17.1328 4.4419 16.5133 4.03548 15.8145 3.85645C15.4133 3.75374 15.171 3.34546 15.2734 2.94434C15.3761 2.54322 15.7844 2.30088 16.1855 2.40332C17.2073 2.66493 18.1131 3.25961 18.7598 4.09277C19.4064 4.92591 19.7578 5.95023 19.7578 7.00488L19.7539 7.20215C19.713 8.18681 19.366 9.1359 18.7598 9.91699C18.1131 10.7502 17.2073 11.3448 16.1855 11.6064C15.7844 11.7089 15.3761 11.4665 15.2734 11.0654C15.171 10.6643 15.4133 10.256 15.8145 10.1533C16.5133 9.97429 17.1328 9.56787 17.5752 8.99805C17.9624 8.49926 18.195 7.89982 18.2471 7.27441L18.2578 7.00488ZM13.75 7C13.75 9.62335 11.6234 11.75 9 11.75C6.37665 11.75 4.25 9.62335 4.25 7C4.25 4.37665 6.37665 2.25 9 2.25C11.6234 2.25 13.75 4.37665 13.75 7Z" fill="#262626"/>
</svg>
