<svg width="17" height="17" viewBox="0 0 17 17" fill="none" xmlns="http://www.w3.org/2000/svg">
<path d="M14.2606 14.0589L10.1036 7.52582L14.2055 3.01352C14.2983 2.90894 14.3461 2.77202 14.3386 2.63242C14.3311 2.49283 14.2689 2.36183 14.1654 2.26781C14.0619 2.17379 13.9256 2.12434 13.7859 2.13018C13.6463 2.13601 13.5145 2.19666 13.4193 2.29898L9.51192 6.5968L6.82313 2.37137C6.77519 2.2959 6.70897 2.23375 6.63061 2.19069C6.55226 2.14762 6.4643 2.12503 6.37489 2.125H3.18739C3.09214 2.12495 2.99862 2.15052 2.91664 2.19902C2.83466 2.24751 2.76723 2.31716 2.7214 2.40067C2.67558 2.48417 2.65304 2.57846 2.65617 2.67366C2.65929 2.76886 2.68795 2.86147 2.73915 2.9418L6.89618 9.47418L2.79426 13.9898C2.74636 14.0413 2.70915 14.1017 2.68479 14.1677C2.66042 14.2336 2.64938 14.3037 2.65232 14.374C2.65525 14.4442 2.6721 14.5132 2.70188 14.5768C2.73166 14.6405 2.77379 14.6977 2.82581 14.7449C2.87784 14.7922 2.93873 14.8287 3.00496 14.8523C3.07119 14.8758 3.14145 14.886 3.21164 14.8823C3.28184 14.8785 3.3506 14.8608 3.41391 14.8303C3.47723 14.7997 3.53386 14.7569 3.58051 14.7043L7.48786 10.4065L10.1766 14.632C10.225 14.7068 10.2914 14.7683 10.3697 14.8108C10.448 14.8532 10.5358 14.8753 10.6249 14.875H13.8124C13.9075 14.875 14.0009 14.8494 14.0828 14.8009C14.1647 14.7525 14.2321 14.6829 14.2779 14.5995C14.3237 14.5161 14.3462 14.4219 14.3432 14.3268C14.3402 14.2317 14.3117 14.1392 14.2606 14.0589ZM10.9164 13.8125L4.15493 3.1875H6.08071L12.8449 13.8125H10.9164Z" fill="black"/>
</svg>
